<?xml version="1.0" encoding="UTF-8"?>
<svg width="706px" height="201px" viewBox="0 0 706 201" version="1.1" xmlns="http://www.w3.org/2000/svg" xmlns:xlink="http://www.w3.org/1999/xlink">
    <title>logoSlogan-white-openSMILE</title>
    <g id="logoSlogan-white-openSMILE" stroke="none" stroke-width="1" fill="none" fill-rule="evenodd">
        <path d="M153.613281,166.738281 C155.308594,166.738281 156.860352,166.375977 158.268555,165.651367 C159.676758,164.926758 160.756836,164.072266 161.508789,163.087891 C161.631836,163.962891 161.84375,164.639648 162.144531,165.118164 C162.71875,166.020508 163.641602,166.47168 164.913086,166.47168 C165.432617,166.47168 165.842773,166.451172 166.143555,166.410156 C166.444336,166.369141 166.881836,166.266602 167.456055,166.102539 L167.456055,166.102539 L167.456055,163.375 C167.223633,163.416016 167.004883,163.446777 166.799805,163.467285 C166.594727,163.487793 166.410156,163.498047 166.246094,163.498047 C165.740234,163.498047 165.408691,163.381836 165.251465,163.149414 C165.094238,162.916992 165.015625,162.609375 165.015625,162.226562 L165.015625,162.226562 L165.015625,149.573242 C165.015625,147.495117 164.21582,145.963867 162.616211,144.979492 C161.00293,143.995117 158.904297,143.50293 156.320312,143.50293 C154.091797,143.50293 152.133301,144.032715 150.444824,145.092285 C148.756348,146.151855 147.87793,148.035156 147.80957,150.742188 L147.80957,150.742188 L151.254883,150.742188 C151.391602,149.607422 151.685547,148.75293 152.136719,148.178711 C152.943359,147.139648 154.310547,146.620117 156.238281,146.620117 C157.90625,146.620117 159.187988,146.903809 160.083496,147.471191 C160.979004,148.038574 161.426758,148.951172 161.426758,150.208984 C161.426758,150.824219 161.344727,151.295898 161.180664,151.624023 C160.893555,152.225586 160.326172,152.581055 159.478516,152.69043 L159.478516,152.69043 L153.592773,153.428711 C151.52832,153.688477 149.860352,154.378906 148.588867,155.5 C147.317383,156.621094 146.681641,158.200195 146.681641,160.237305 C146.681641,162.09668 147.327637,163.64502 148.619629,164.882324 C149.911621,166.119629 151.576172,166.738281 153.613281,166.738281 Z M154.474609,163.600586 C153.408203,163.600586 152.485352,163.292969 151.706055,162.677734 C150.926758,162.0625 150.537109,161.22168 150.537109,160.155273 C150.537109,158.74707 151.104492,157.72168 152.239258,157.079102 C152.90918,156.696289 153.914062,156.416016 155.253906,156.238281 L155.253906,156.238281 L157.489258,155.951172 C158.172852,155.869141 158.870117,155.732422 159.581055,155.541016 C160.291992,155.349609 160.873047,155.110352 161.324219,154.823242 L161.324219,154.823242 L161.324219,157.796875 C161.324219,160.066406 160.298828,161.700195 158.248047,162.698242 C157.03125,163.299805 155.773438,163.600586 154.474609,163.600586 Z M178.604688,166.594727 C180.614453,166.594727 182.323438,166.020508 183.731641,164.87207 C184.442578,164.297852 185.037305,163.59375 185.51582,162.759766 L185.51582,162.759766 L185.474805,166 L188.961133,166 L188.961133,144.036133 L185.269727,144.036133 L185.269727,154.823242 C185.269727,156.969727 185.016797,158.658203 184.510938,159.888672 C183.58125,162.185547 181.83125,163.333984 179.260938,163.333984 C177.469922,163.333984 176.246289,162.677734 175.590039,161.365234 C175.23457,160.654297 175.056836,159.738281 175.056836,158.617188 L175.056836,158.617188 L175.056836,144.036133 L171.283398,144.036133 L171.283398,158.96582 C171.283398,160.838867 171.591016,162.335938 172.20625,163.457031 C173.341016,165.548828 175.473828,166.594727 178.604688,166.594727 Z M202.50918,166.779297 C204.026758,166.779297 205.373437,166.478516 206.549219,165.876953 C207.725,165.275391 208.743555,164.297852 209.604883,162.944336 L209.604883,162.944336 L209.604883,166 L212.927148,166 L212.927148,135.771484 L209.379297,135.771484 L209.379297,146.866211 C208.545312,145.84082 207.800195,145.123047 207.143945,144.712891 C206.00918,144.001953 204.600977,143.646484 202.919336,143.646484 C199.88418,143.646484 197.549707,144.818848 195.915918,147.163574 C194.282129,149.508301 193.465234,152.280273 193.465234,155.479492 C193.465234,158.897461 194.360742,161.635254 196.151758,163.692871 C197.942773,165.750488 200.061914,166.779297 202.50918,166.779297 Z M203.657617,163.55957 C201.456445,163.55957 199.856836,162.766602 198.858789,161.180664 C197.860742,159.594727 197.361719,157.625977 197.361719,155.274414 C197.361719,152.512695 197.939355,150.420898 199.094629,148.999023 C200.249902,147.577148 201.757227,146.866211 203.616602,146.866211 C205.28457,146.866211 206.685937,147.532715 207.820703,148.865723 C208.955469,150.19873 209.522852,152.25293 209.522852,155.02832 C209.522852,157.776367 208.972559,159.885254 207.871973,161.35498 C206.771387,162.824707 205.366602,163.55957 203.657617,163.55957 Z M222.435156,140.057617 L222.435156,135.874023 L218.682227,135.874023 L218.682227,140.057617 L222.435156,140.057617 Z M222.435156,166 L222.435156,144.138672 L218.682227,144.138672 L218.682227,166 L222.435156,166 Z M236.680469,166.799805 C240.303516,166.799805 242.976367,165.644531 244.699023,163.333984 C246.42168,161.023438 247.283008,158.097656 247.283008,154.556641 C247.283008,150.892578 246.305469,148.117188 244.350391,146.230469 C242.395312,144.34375 240.002734,143.400391 237.172656,143.400391 C234.014453,143.400391 231.498828,144.494141 229.625781,146.681641 C227.752734,148.869141 226.816211,151.808594 226.816211,155.5 C226.816211,158.945312 227.704883,161.689941 229.482227,163.733887 C231.25957,165.777832 233.658984,166.799805 236.680469,166.799805 Z M237.029102,163.621094 C234.800586,163.621094 233.173633,162.841797 232.148242,161.283203 C231.122852,159.724609 230.610156,157.776367 230.610156,155.438477 C230.610156,153.004883 231.122852,150.926758 232.148242,149.204102 C233.173633,147.481445 234.814258,146.620117 237.070117,146.620117 C239.613086,146.620117 241.404102,147.631836 242.443164,149.655273 C243.099414,150.94043 243.427539,152.608398 243.427539,154.65918 C243.427539,156.928711 242.972949,158.989746 242.06377,160.842285 C241.15459,162.694824 239.476367,163.621094 237.029102,163.621094 Z M268.513867,166 L268.513867,147.050781 L272.205273,147.050781 L272.205273,144.138672 L268.554883,144.138672 C268.554883,141.759766 268.664258,140.279785 268.883008,139.69873 C269.101758,139.117676 269.77168,138.827148 270.892773,138.827148 C271.043164,138.827148 271.203809,138.830566 271.374707,138.837402 C271.545605,138.844238 271.822461,138.861328 272.205273,138.888672 L272.205273,138.888672 L272.205273,135.525391 C271.89082,135.498047 271.610547,135.477539 271.364453,135.463867 C271.118359,135.450195 270.879102,135.443359 270.64668,135.443359 C268.185742,135.443359 266.524609,136.072266 265.663281,137.330078 C265.184766,138.041016 264.918164,139.162109 264.863477,140.693359 L264.863477,140.693359 L264.863477,144.138672 L261.807813,144.138672 L261.807813,147.050781 L264.863477,147.050781 L264.863477,166 L268.513867,166 Z M284.481836,166.779297 C285.60293,166.779297 286.607813,166.669922 287.496484,166.451172 C289.150781,166.068359 290.538477,165.330078 291.65957,164.236328 C292.329492,163.607422 292.934473,162.797363 293.474512,161.806152 C294.014551,160.814941 294.332422,159.916016 294.428125,159.109375 L294.428125,159.109375 L290.798242,159.109375 C290.524805,160.080078 290.059961,160.93457 289.403711,161.672852 C288.255273,162.944336 286.717188,163.580078 284.789453,163.580078 C282.725,163.580078 281.200586,162.906738 280.216211,161.560059 C279.231836,160.213379 278.705469,158.425781 278.637109,156.197266 L278.637109,156.197266 L294.735742,156.197266 C294.735742,153.982422 294.626367,152.369141 294.407617,151.357422 C294.161523,149.880859 293.669336,148.588867 292.931055,147.481445 C292.16543,146.319336 291.051172,145.372559 289.588281,144.641113 C288.125391,143.909668 286.614648,143.543945 285.056055,143.543945 C281.966211,143.543945 279.464258,144.644531 277.550195,146.845703 C275.636133,149.046875 274.679102,151.911133 274.679102,155.438477 C274.679102,159.020508 275.629297,161.806152 277.529688,163.79541 C279.430078,165.784668 281.747461,166.779297 284.481836,166.779297 Z M290.941797,153.264648 L278.739648,153.264648 C278.808008,151.37793 279.416406,149.822754 280.564844,148.599121 C281.713281,147.375488 283.135156,146.763672 284.830469,146.763672 C287.195703,146.763672 288.88418,147.652344 289.895898,149.429688 C290.442773,150.386719 290.791406,151.665039 290.941797,153.264648 L290.941797,153.264648 Z M305.474219,166.738281 C307.169531,166.738281 308.721289,166.375977 310.129492,165.651367 C311.537695,164.926758 312.617773,164.072266 313.369727,163.087891 C313.492773,163.962891 313.704687,164.639648 314.005469,165.118164 C314.579687,166.020508 315.502539,166.47168 316.774023,166.47168 C317.293555,166.47168 317.703711,166.451172 318.004492,166.410156 C318.305273,166.369141 318.742773,166.266602 319.316992,166.102539 L319.316992,166.102539 L319.316992,163.375 C319.08457,163.416016 318.86582,163.446777 318.660742,163.467285 C318.455664,163.487793 318.271094,163.498047 318.107031,163.498047 C317.601172,163.498047 317.269629,163.381836 317.112402,163.149414 C316.955176,162.916992 316.876562,162.609375 316.876562,162.226562 L316.876562,162.226562 L316.876562,149.573242 C316.876562,147.495117 316.076758,145.963867 314.477148,144.979492 C312.863867,143.995117 310.765234,143.50293 308.18125,143.50293 C305.952734,143.50293 303.994238,144.032715 302.305762,145.092285 C300.617285,146.151855 299.738867,148.035156 299.670508,150.742188 L299.670508,150.742188 L303.11582,150.742188 C303.252539,149.607422 303.546484,148.75293 303.997656,148.178711 C304.804297,147.139648 306.171484,146.620117 308.099219,146.620117 C309.767187,146.620117 311.048926,146.903809 311.944434,147.471191 C312.839941,148.038574 313.287695,148.951172 313.287695,150.208984 C313.287695,150.824219 313.205664,151.295898 313.041602,151.624023 C312.754492,152.225586 312.187109,152.581055 311.339453,152.69043 L311.339453,152.69043 L305.453711,153.428711 C303.389258,153.688477 301.721289,154.378906 300.449805,155.5 C299.17832,156.621094 298.542578,158.200195 298.542578,160.237305 C298.542578,162.09668 299.188574,163.64502 300.480566,164.882324 C301.772559,166.119629 303.437109,166.738281 305.474219,166.738281 Z M306.335547,163.600586 C305.269141,163.600586 304.346289,163.292969 303.566992,162.677734 C302.787695,162.0625 302.398047,161.22168 302.398047,160.155273 C302.398047,158.74707 302.96543,157.72168 304.100195,157.079102 C304.770117,156.696289 305.775,156.416016 307.114844,156.238281 L307.114844,156.238281 L309.350195,155.951172 C310.033789,155.869141 310.731055,155.732422 311.441992,155.541016 C312.15293,155.349609 312.733984,155.110352 313.185156,154.823242 L313.185156,154.823242 L313.185156,157.796875 C313.185156,160.066406 312.159766,161.700195 310.108984,162.698242 C308.892187,163.299805 307.634375,163.600586 306.335547,163.600586 Z M328.394336,166.348633 C328.927539,166.348633 329.423145,166.321289 329.881152,166.266602 C330.33916,166.211914 330.780078,166.123047 331.203906,166 L331.203906,166 L331.203906,163.087891 C330.930469,163.115234 330.691211,163.132324 330.486133,163.13916 C330.281055,163.145996 330.089648,163.149414 329.911914,163.149414 C329.241992,163.149414 328.763477,163.074219 328.476367,162.923828 C327.956836,162.664062 327.69707,162.151367 327.69707,161.385742 L327.69707,161.385742 L327.69707,147.050781 L331.203906,147.050781 L331.203906,144.036133 L327.69707,144.036133 L327.69707,137.904297 L323.964648,137.904297 L323.964648,144.036133 L320.991016,144.036133 L320.991016,147.050781 L323.964648,147.050781 L323.964648,161.59082 C323.964648,162.999023 324.272266,164.144043 324.8875,165.025879 C325.502734,165.907715 326.67168,166.348633 328.394336,166.348633 Z M342.43457,166.594727 C344.444336,166.594727 346.15332,166.020508 347.561523,164.87207 C348.272461,164.297852 348.867188,163.59375 349.345703,162.759766 L349.345703,162.759766 L349.304688,166 L352.791016,166 L352.791016,144.036133 L349.099609,144.036133 L349.099609,154.823242 C349.099609,156.969727 348.84668,158.658203 348.34082,159.888672 C347.411133,162.185547 345.661133,163.333984 343.09082,163.333984 C341.299805,163.333984 340.076172,162.677734 339.419922,161.365234 C339.064453,160.654297 338.886719,159.738281 338.886719,158.617188 L338.886719,158.617188 L338.886719,144.036133 L335.113281,144.036133 L335.113281,158.96582 C335.113281,160.838867 335.420898,162.335938 336.036133,163.457031 C337.170898,165.548828 339.303711,166.594727 342.43457,166.594727 Z M362.647656,166 L362.647656,153.367188 C362.647656,151.808594 363.14668,150.431152 364.144727,149.234863 C365.142773,148.038574 366.571484,147.44043 368.430859,147.44043 C368.649609,147.44043 368.85127,147.447266 369.03584,147.460938 C369.22041,147.474609 369.42207,147.501953 369.64082,147.542969 L369.64082,147.542969 L369.64082,143.646484 C369.244336,143.605469 368.964063,143.578125 368.8,143.564453 C368.635938,143.550781 368.519727,143.543945 368.451367,143.543945 C366.988477,143.543945 365.696484,144.07373 364.575391,145.133301 C363.454297,146.192871 362.750195,147.091797 362.463086,147.830078 L362.463086,147.830078 L362.463086,144.036133 L358.95625,144.036133 L358.95625,166 L362.647656,166 Z M381.712305,166.779297 C382.833398,166.779297 383.838281,166.669922 384.726953,166.451172 C386.38125,166.068359 387.768945,165.330078 388.890039,164.236328 C389.559961,163.607422 390.164941,162.797363 390.70498,161.806152 C391.24502,160.814941 391.562891,159.916016 391.658594,159.109375 L391.658594,159.109375 L388.028711,159.109375 C387.755273,160.080078 387.29043,160.93457 386.63418,161.672852 C385.485742,162.944336 383.947656,163.580078 382.019922,163.580078 C379.955469,163.580078 378.431055,162.906738 377.44668,161.560059 C376.462305,160.213379 375.935938,158.425781 375.867578,156.197266 L375.867578,156.197266 L391.966211,156.197266 C391.966211,153.982422 391.856836,152.369141 391.638086,151.357422 C391.391992,149.880859 390.899805,148.588867 390.161523,147.481445 C389.395898,146.319336 388.281641,145.372559 386.81875,144.641113 C385.355859,143.909668 383.845117,143.543945 382.286523,143.543945 C379.19668,143.543945 376.694727,144.644531 374.780664,146.845703 C372.866602,149.046875 371.90957,151.911133 371.90957,155.438477 C371.90957,159.020508 372.859766,161.806152 374.760156,163.79541 C376.660547,165.784668 378.97793,166.779297 381.712305,166.779297 Z M388.172266,153.264648 L375.970117,153.264648 C376.038477,151.37793 376.646875,149.822754 377.795313,148.599121 C378.94375,147.375488 380.365625,146.763672 382.060938,146.763672 C384.426172,146.763672 386.114648,147.652344 387.126367,149.429688 C387.673242,150.386719 388.021875,151.665039 388.172266,153.264648 L388.172266,153.264648 Z M417.339648,166.779297 C418.460742,166.779297 419.465625,166.669922 420.354297,166.451172 C422.008594,166.068359 423.396289,165.330078 424.517383,164.236328 C425.187305,163.607422 425.792285,162.797363 426.332324,161.806152 C426.872363,160.814941 427.190234,159.916016 427.285938,159.109375 L427.285938,159.109375 L423.656055,159.109375 C423.382617,160.080078 422.917773,160.93457 422.261523,161.672852 C421.113086,162.944336 419.575,163.580078 417.647266,163.580078 C415.582813,163.580078 414.058398,162.906738 413.074023,161.560059 C412.089648,160.213379 411.563281,158.425781 411.494922,156.197266 L411.494922,156.197266 L427.593555,156.197266 C427.593555,153.982422 427.48418,152.369141 427.26543,151.357422 C427.019336,149.880859 426.527148,148.588867 425.788867,147.481445 C425.023242,146.319336 423.908984,145.372559 422.446094,144.641113 C420.983203,143.909668 419.472461,143.543945 417.913867,143.543945 C414.824023,143.543945 412.32207,144.644531 410.408008,146.845703 C408.493945,149.046875 407.536914,151.911133 407.536914,155.438477 C407.536914,159.020508 408.487109,161.806152 410.3875,163.79541 C412.287891,165.784668 414.605273,166.779297 417.339648,166.779297 Z M423.799609,153.264648 L411.597461,153.264648 C411.66582,151.37793 412.274219,149.822754 413.422656,148.599121 C414.571094,147.375488 415.992969,146.763672 417.688281,146.763672 C420.053516,146.763672 421.741992,147.652344 422.753711,149.429688 C423.300586,150.386719 423.649219,151.665039 423.799609,153.264648 L423.799609,153.264648 Z M434.620117,166 L439.911133,157.755859 L445.366211,166 L450.083008,166 L442.351563,154.741211 L449.754883,144.138672 L445.263672,144.036133 L440.157227,151.767578 L435.112305,144.036133 L430.333984,144.036133 L437.675781,154.741211 L429.944336,166 L434.620117,166 Z M458.89375,166.348633 C459.426953,166.348633 459.922559,166.321289 460.380566,166.266602 C460.838574,166.211914 461.279492,166.123047 461.70332,166 L461.70332,166 L461.70332,163.087891 C461.429883,163.115234 461.190625,163.132324 460.985547,163.13916 C460.780469,163.145996 460.589063,163.149414 460.411328,163.149414 C459.741406,163.149414 459.262891,163.074219 458.975781,162.923828 C458.45625,162.664062 458.196484,162.151367 458.196484,161.385742 L458.196484,161.385742 L458.196484,147.050781 L461.70332,147.050781 L461.70332,144.036133 L458.196484,144.036133 L458.196484,137.904297 L454.464063,137.904297 L454.464063,144.036133 L451.49043,144.036133 L451.49043,147.050781 L454.464063,147.050781 L454.464063,161.59082 C454.464063,162.999023 454.77168,164.144043 455.386914,165.025879 C456.002148,165.907715 457.171094,166.348633 458.89375,166.348633 Z M469.488672,166 L469.488672,153.367188 C469.488672,151.808594 469.987695,150.431152 470.985742,149.234863 C471.983789,148.038574 473.4125,147.44043 475.271875,147.44043 C475.490625,147.44043 475.692285,147.447266 475.876855,147.460938 C476.061426,147.474609 476.263086,147.501953 476.481836,147.542969 L476.481836,147.542969 L476.481836,143.646484 C476.085352,143.605469 475.805078,143.578125 475.641016,143.564453 C475.476953,143.550781 475.360742,143.543945 475.292383,143.543945 C473.829492,143.543945 472.5375,144.07373 471.416406,145.133301 C470.295313,146.192871 469.591211,147.091797 469.304102,147.830078 L469.304102,147.830078 L469.304102,144.036133 L465.797266,144.036133 L465.797266,166 L469.488672,166 Z M485.887305,166.738281 C487.582617,166.738281 489.134375,166.375977 490.542578,165.651367 C491.950781,164.926758 493.030859,164.072266 493.782813,163.087891 C493.905859,163.962891 494.117773,164.639648 494.418555,165.118164 C494.992773,166.020508 495.915625,166.47168 497.187109,166.47168 C497.706641,166.47168 498.116797,166.451172 498.417578,166.410156 C498.718359,166.369141 499.155859,166.266602 499.730078,166.102539 L499.730078,166.102539 L499.730078,163.375 C499.497656,163.416016 499.278906,163.446777 499.073828,163.467285 C498.86875,163.487793 498.68418,163.498047 498.520117,163.498047 C498.014258,163.498047 497.682715,163.381836 497.525488,163.149414 C497.368262,162.916992 497.289648,162.609375 497.289648,162.226562 L497.289648,162.226562 L497.289648,149.573242 C497.289648,147.495117 496.489844,145.963867 494.890234,144.979492 C493.276953,143.995117 491.17832,143.50293 488.594336,143.50293 C486.36582,143.50293 484.407324,144.032715 482.718848,145.092285 C481.030371,146.151855 480.151953,148.035156 480.083594,150.742188 L480.083594,150.742188 L483.528906,150.742188 C483.665625,149.607422 483.95957,148.75293 484.410742,148.178711 C485.217383,147.139648 486.58457,146.620117 488.512305,146.620117 C490.180273,146.620117 491.462012,146.903809 492.35752,147.471191 C493.253027,148.038574 493.700781,148.951172 493.700781,150.208984 C493.700781,150.824219 493.61875,151.295898 493.454688,151.624023 C493.167578,152.225586 492.600195,152.581055 491.752539,152.69043 L491.752539,152.69043 L485.866797,153.428711 C483.802344,153.688477 482.134375,154.378906 480.862891,155.5 C479.591406,156.621094 478.955664,158.200195 478.955664,160.237305 C478.955664,162.09668 479.60166,163.64502 480.893652,164.882324 C482.185645,166.119629 483.850195,166.738281 485.887305,166.738281 Z M486.748633,163.600586 C485.682227,163.600586 484.759375,163.292969 483.980078,162.677734 C483.200781,162.0625 482.811133,161.22168 482.811133,160.155273 C482.811133,158.74707 483.378516,157.72168 484.513281,157.079102 C485.183203,156.696289 486.188086,156.416016 487.52793,156.238281 L487.52793,156.238281 L489.763281,155.951172 C490.446875,155.869141 491.144141,155.732422 491.855078,155.541016 C492.566016,155.349609 493.14707,155.110352 493.598242,154.823242 L493.598242,154.823242 L493.598242,157.796875 C493.598242,160.066406 492.572852,161.700195 490.52207,162.698242 C489.305273,163.299805 488.047461,163.600586 486.748633,163.600586 Z M511.575977,166.635742 C514.132617,166.635742 516.23125,165.962402 517.871875,164.615723 C519.5125,163.269043 520.537891,161.139648 520.948047,158.227539 L520.948047,158.227539 L517.35918,158.227539 C517.017383,159.854492 516.39873,161.13623 515.503223,162.072754 C514.607715,163.009277 513.394336,163.477539 511.863086,163.477539 C509.866992,163.477539 508.404102,162.725586 507.474414,161.22168 C506.544727,159.717773 506.079883,157.865234 506.079883,155.664062 C506.079883,153.476562 506.408008,151.637695 507.064258,150.147461 C508.075977,147.850586 509.757617,146.702148 512.10918,146.702148 C513.831836,146.702148 515.082813,147.149902 515.862109,148.04541 C516.641406,148.940918 517.14043,150.06543 517.35918,151.418945 L517.35918,151.418945 L520.948047,151.418945 C520.633594,148.479492 519.700488,146.408203 518.14873,145.205078 C516.596973,144.001953 514.583789,143.400391 512.10918,143.400391 C509.210742,143.400391 506.825,144.473633 504.951953,146.620117 C503.078906,148.766602 502.142383,151.767578 502.142383,155.623047 C502.142383,158.767578 502.996875,161.38916 504.705859,163.487793 C506.414844,165.586426 508.704883,166.635742 511.575977,166.635742 Z M530.107422,166.348633 C530.640625,166.348633 531.13623,166.321289 531.594238,166.266602 C532.052246,166.211914 532.493164,166.123047 532.916992,166 L532.916992,166 L532.916992,163.087891 C532.643555,163.115234 532.404297,163.132324 532.199219,163.13916 C531.994141,163.145996 531.802734,163.149414 531.625,163.149414 C530.955078,163.149414 530.476563,163.074219 530.189453,162.923828 C529.669922,162.664062 529.410156,162.151367 529.410156,161.385742 L529.410156,161.385742 L529.410156,147.050781 L532.916992,147.050781 L532.916992,144.036133 L529.410156,144.036133 L529.410156,137.904297 L525.677734,137.904297 L525.677734,144.036133 L522.704102,144.036133 L522.704102,147.050781 L525.677734,147.050781 L525.677734,161.59082 C525.677734,162.999023 525.985352,164.144043 526.600586,165.025879 C527.21582,165.907715 528.384766,166.348633 530.107422,166.348633 Z M540.661328,140.057617 L540.661328,135.874023 L536.908398,135.874023 L536.908398,140.057617 L540.661328,140.057617 Z M540.661328,166 L540.661328,144.138672 L536.908398,144.138672 L536.908398,166 L540.661328,166 Z M554.906641,166.799805 C558.529688,166.799805 561.202539,165.644531 562.925195,163.333984 C564.647852,161.023438 565.50918,158.097656 565.50918,154.556641 C565.50918,150.892578 564.531641,148.117188 562.576563,146.230469 C560.621484,144.34375 558.228906,143.400391 555.398828,143.400391 C552.240625,143.400391 549.725,144.494141 547.851953,146.681641 C545.978906,148.869141 545.042383,151.808594 545.042383,155.5 C545.042383,158.945312 545.931055,161.689941 547.708398,163.733887 C549.485742,165.777832 551.885156,166.799805 554.906641,166.799805 Z M555.255273,163.621094 C553.026758,163.621094 551.399805,162.841797 550.374414,161.283203 C549.349023,159.724609 548.836328,157.776367 548.836328,155.438477 C548.836328,153.004883 549.349023,150.926758 550.374414,149.204102 C551.399805,147.481445 553.04043,146.620117 555.296289,146.620117 C557.839258,146.620117 559.630273,147.631836 560.669336,149.655273 C561.325586,150.94043 561.653711,152.608398 561.653711,154.65918 C561.653711,156.928711 561.199121,158.989746 560.289941,160.842285 C559.380762,162.694824 557.702539,163.621094 555.255273,163.621094 Z M573.889258,166 L573.889258,154.495117 C573.889258,153.05957 573.981543,151.955566 574.166113,151.183105 C574.350684,150.410645 574.750586,149.662109 575.36582,148.9375 C576.131445,148.035156 577.020117,147.433594 578.031836,147.132812 C578.592383,146.955078 579.310156,146.866211 580.185156,146.866211 C581.907813,146.866211 583.097266,147.549805 583.753516,148.916992 C584.15,149.737305 584.348242,150.817383 584.348242,152.157227 L584.348242,152.157227 L584.348242,166 L588.101172,166 L588.101172,151.911133 C588.101172,149.696289 587.800391,147.994141 587.198828,146.804688 C586.105078,144.630859 583.999609,143.543945 580.882422,143.543945 C579.460547,143.543945 578.168555,143.824219 577.006445,144.384766 C575.844336,144.945312 574.74375,145.868164 573.704688,147.15332 L573.704688,147.15332 L573.704688,144.036133 L570.197852,144.036133 L570.197852,166 L573.889258,166 Z" id="audiofeatureextraction" fill="#FFFFFF" fill-rule="nonzero"></path>
        <path d="M170.356,111.428 C174.028,111.428 177.377,110.765 180.403,109.439 C183.429,108.113 186.013,106.226 188.155,103.778 C190.297,101.33 191.946,98.406 193.102,95.006 C194.258,91.606 194.836,87.798 194.836,83.582 C194.836,79.706 194.343,76.068 193.357,72.668 C192.371,69.268 190.858,66.327 188.818,63.845 C186.778,61.363 184.228,59.391 181.168,57.929 C178.108,56.467 174.504,55.736 170.356,55.736 C166.276,55.736 162.706,56.467 159.646,57.929 C156.586,59.391 154.036,61.38 151.996,63.896 C149.956,66.412 148.426,69.353 147.406,72.719 C146.386,76.085 145.876,79.706 145.876,83.582 C145.876,88.206 146.522,92.252 147.814,95.72 C149.106,99.188 150.857,102.078 153.067,104.39 C155.277,106.702 157.861,108.436 160.819,109.592 C163.777,110.748 166.956,111.36 170.356,111.428 Z M170.356,105.92 C167.432,105.92 164.848,105.376 162.604,104.288 C160.36,103.2 158.49,101.67 156.994,99.698 C155.498,97.726 154.359,95.363 153.577,92.609 C152.795,89.855 152.404,86.846 152.404,83.582 C152.404,80.726 152.744,77.955 153.424,75.269 C154.104,72.583 155.158,70.203 156.586,68.129 C158.014,66.055 159.867,64.389 162.145,63.131 C164.423,61.873 167.16,61.244 170.356,61.244 C173.62,61.244 176.374,61.822 178.618,62.978 C180.862,64.134 182.698,65.715 184.126,67.721 C185.554,69.727 186.608,72.09 187.288,74.81 C187.968,77.53 188.308,80.454 188.308,83.582 C188.308,86.438 187.968,89.192 187.288,91.844 C186.608,94.496 185.554,96.876 184.126,98.984 C182.698,101.092 180.845,102.775 178.567,104.033 C176.289,105.291 173.552,105.92 170.356,105.92 Z M212.89,130.808 L212.89,101.534 C214.862,104.798 217.565,107.263 220.999,108.929 C224.433,110.595 228.02,111.428 231.76,111.428 C235.772,111.428 239.257,110.663 242.215,109.133 C245.173,107.603 247.621,105.563 249.559,103.013 C251.497,100.463 252.942,97.488 253.894,94.088 C254.846,90.688 255.322,87.152 255.322,83.48 C255.322,79.604 254.88,75.966 253.996,72.566 C253.112,69.166 251.701,66.225 249.763,63.743 C247.825,61.261 245.36,59.306 242.368,57.878 C239.376,56.45 235.738,55.736 231.454,55.736 C229.754,55.736 228.02,55.974 226.252,56.45 C224.484,56.926 222.767,57.606 221.101,58.49 C219.435,59.374 217.905,60.496 216.511,61.856 C215.117,63.216 213.978,64.746 213.094,66.446 L213.094,66.446 L212.89,66.446 L212.89,57.164 L206.77,57.164 L206.77,130.808 L212.89,130.808 Z M230.74,105.92 C227.952,105.92 225.453,105.325 223.243,104.135 C221.033,102.945 219.163,101.347 217.633,99.341 C216.103,97.335 214.93,94.989 214.114,92.303 C213.298,89.617 212.89,86.778 212.89,83.786 C212.89,80.59 213.281,77.615 214.063,74.861 C214.845,72.107 215.984,69.727 217.48,67.721 C218.976,65.715 220.846,64.134 223.09,62.978 C225.334,61.822 227.884,61.244 230.74,61.244 C233.324,61.244 235.704,61.703 237.88,62.621 C240.056,63.539 241.96,64.882 243.592,66.65 C245.224,68.418 246.499,70.577 247.417,73.127 C248.335,75.677 248.794,78.618 248.794,81.95 C248.93,85.282 248.658,88.393 247.978,91.283 C247.298,94.173 246.21,96.706 244.714,98.882 C243.218,101.058 241.297,102.775 238.951,104.033 C236.605,105.291 233.868,105.92 230.74,105.92 Z M289.9,111.428 C293.232,111.428 296.156,110.986 298.672,110.102 C301.188,109.218 303.364,107.977 305.2,106.379 C307.036,104.781 308.566,102.911 309.79,100.769 C311.014,98.627 312,96.298 312.748,93.782 L312.748,93.782 L305.914,93.782 C304.962,97.658 303.058,100.65 300.202,102.758 C297.346,104.866 293.912,105.92 289.9,105.92 C286.976,105.92 284.392,105.359 282.148,104.237 C279.904,103.115 278.051,101.619 276.589,99.749 C275.127,97.879 274.022,95.669 273.274,93.119 C272.526,90.569 272.152,87.866 272.152,85.01 L272.152,85.01 L313.156,85.01 C313.224,75.49 311.184,68.231 307.036,63.233 C302.888,58.235 297.176,55.736 289.9,55.736 C286.092,55.736 282.692,56.467 279.7,57.929 C276.708,59.391 274.175,61.397 272.101,63.947 C270.027,66.497 268.429,69.472 267.307,72.872 C266.185,76.272 265.624,79.91 265.624,83.786 C265.624,87.662 266.1,91.283 267.052,94.649 C268.004,98.015 269.466,100.939 271.438,103.421 C273.41,105.903 275.926,107.858 278.986,109.286 C282.046,110.714 285.684,111.428 289.9,111.428 Z M306.628,79.91 L272.152,79.91 C272.424,77.394 273.002,75.014 273.886,72.77 C274.77,70.526 275.943,68.554 277.405,66.854 C278.867,65.154 280.635,63.794 282.709,62.774 C284.783,61.754 287.18,61.244 289.9,61.244 C292.62,61.244 295.034,61.737 297.142,62.723 C299.25,63.709 301.001,65.035 302.395,66.701 C303.789,68.367 304.843,70.339 305.557,72.617 C306.271,74.895 306.628,77.326 306.628,79.91 L306.628,79.91 Z M331.21,110 L331.21,81.542 C331.21,79.706 331.278,78.006 331.414,76.442 C331.55,74.878 331.924,73.246 332.536,71.546 C333.012,70.186 333.692,68.894 334.576,67.67 C335.46,66.446 336.531,65.358 337.789,64.406 C339.047,63.454 340.458,62.689 342.022,62.111 C343.586,61.533 345.32,61.244 347.224,61.244 C352.12,61.244 355.622,62.434 357.73,64.814 C359.838,67.194 360.892,70.764 360.892,75.524 L360.892,75.524 L360.892,110 L367.012,110 L367.012,75.422 C367.012,73.246 366.893,71.155 366.655,69.149 C366.417,67.143 365.652,65.188 364.36,63.284 C362.456,60.496 360.11,58.541 357.322,57.419 C354.534,56.297 351.508,55.736 348.244,55.736 C344.572,55.736 341.427,56.552 338.809,58.184 C336.191,59.816 333.658,61.924 331.21,64.508 L331.21,64.508 L331.21,57.164 L325.09,57.164 L325.09,110 L331.21,110 Z M409.470695,111.892578 C418.833977,111.892578 426.080559,109.67627 431.210441,105.243652 C436.340324,100.811035 438.905266,95.2412109 438.905266,88.5341797 C438.905266,81.9931641 436.713859,76.9960938 432.331047,73.5429688 C429.508781,71.3183594 425.325187,69.5419922 419.780266,68.2138672 L419.780266,68.2138672 L407.129875,65.1757812 C402.249016,64.0136719 399.061516,63.0009766 397.567375,62.1376953 C395.243156,60.8427734 394.081047,58.8837891 394.081047,56.2607422 C394.081047,53.4052734 395.259758,51.1806641 397.61718,49.5869141 C399.974602,47.9931641 403.128898,47.1962891 407.08007,47.1962891 C410.632805,47.1962891 413.604484,47.8105469 415.995109,49.0390625 C419.581047,50.8984375 421.506828,54.0361328 421.772453,58.4521484 L421.772453,58.4521484 L436.514641,58.4521484 C436.249016,50.6494141 433.385246,44.6977539 427.923332,40.597168 C422.461418,36.496582 415.862297,34.4462891 408.125969,34.4462891 C398.862297,34.4462891 391.839836,36.6210938 387.058586,40.9707031 C382.277336,45.3203125 379.886711,50.7822266 379.886711,57.3564453 C379.886711,64.5615234 382.360344,69.8574219 387.307609,73.2441406 C390.229484,75.2695312 395.508781,77.1455078 403.1455,78.8720703 L403.1455,78.8720703 L410.915031,80.6152344 C415.463859,81.6113281 418.800773,82.7568359 420.925773,84.0517578 C423.050773,85.3798828 424.113273,87.2558594 424.113273,89.6796875 C424.113273,93.8300781 421.971672,96.6689453 417.688469,98.1962891 C415.430656,98.9931641 412.49218,99.3916016 408.873039,99.3916016 C402.83007,99.3916016 398.563469,97.8808594 396.073234,94.859375 C394.711906,93.1992188 393.79882,90.6923828 393.333977,87.3388672 L393.333977,87.3388672 L378.691398,87.3388672 C378.691398,94.9755859 381.430656,100.977051 386.909172,105.343262 C392.387687,109.709473 399.908195,111.892578 409.470695,111.892578 Z M464.305656,110 L464.305462,60.0703144 C464.303516,58.6646938 464.286979,56.7556763 464.255852,54.3432617 L464.249821,53.8676853 C464.224529,51.8367825 464.210197,50.1949463 464.206825,48.9421768 L464.206047,48.3916016 L478.001945,110 L492.893547,110 L506.789055,48.3916016 C506.789055,49.7861328 506.772453,51.7700195 506.73925,54.3432617 L506.733219,54.8190327 C506.704037,57.1643276 506.689445,59.0062256 506.689445,60.3447266 L506.689445,110 L520.983391,110 L520.983391,36.5878906 L498.919914,36.5878906 L485.671867,94.3115234 L472.324211,36.5878906 L450.011711,36.5878906 L450.011711,110 L464.305656,110 Z M549.272453,110 L549.272453,36.5878906 L534.032219,36.5878906 L534.032219,110 L549.272453,110 Z M615.263664,110 L615.263664,96.8017578 L578.906242,96.8017578 L578.906242,36.5878906 L563.566398,36.5878906 L563.566398,110 L615.263664,110 Z M681.952141,110 L681.952141,96.8017578 L641.311516,96.8017578 L641.311516,77.9257812 L676.971672,77.9257812 L676.971672,65.1757812 L641.311516,65.1757812 L641.311516,49.5869141 L680.159172,49.5869141 L680.159172,36.5878906 L626.320305,36.5878906 L626.320305,110 L681.952141,110 Z" id="openSMILE" fill="#FFFFFF" fill-rule="nonzero"></path>
        <path d="M69.7875363,24 L69.9740153,24.1865463 L70.3582206,24.57398 C83.0601867,37.4312642 98,57.3996132 98,80.2166344 C98,97.7820761 88.8144068,116.280249 70.6958694,135.193639 L70.6958694,135.193639 L69.9258917,136 L64.3194916,136 L64.884944,135.079304 C74.6299741,119.355255 86.7511072,99.7859446 86.7511072,80.2166344 C86.7511072,57.6445304 70.8943792,34.2299592 64.0788736,25.2155599 L64.0788736,25.2155599 L63.3870968,24.3068988 L69.7875363,24 Z M46.715088,52.9032258 L46.8912799,53.0831455 C55.5064574,61.8332392 65.7741935,75.399183 65.7741935,90.326519 C65.7741935,98.4528911 62.5480587,111.437095 47.1889835,127.15008 L47.1889835,127.15008 L46.7697682,127.569892 L42.5654644,127.569892 L43.1426448,126.658299 C50.8768627,114.429759 57.8151791,102.441111 57.8151791,90.326519 C57.8151791,76.1008697 48.2947397,61.3714454 42.6262202,53.8568001 L42.6262202,53.8568001 L41.9032258,52.9032258 L46.715088,52.9032258 Z M28.1348053,67.3548387 L28.3107545,67.5057134 C36.8191533,74.7718387 42.0662087,84.7718135 43.0967742,95.6649665 C43.103052,104.578643 38.26445,113.91477 28.7254918,123.456085 L28.7254918,123.456085 L28.2227799,123.956989 L24.4901441,123.956989 L25.2567797,122.991391 C31.5281106,115.037277 35.4429795,105.586486 36.5677974,95.6528965 C35.5246702,85.6951666 31.4652716,76.2021308 24.8294746,68.3385417 L24.8294746,68.3385417 L24,67.3548387 L28.1348053,67.3548387 Z" id="Combined-Shape" fill="#FFFFFF"></path>
    </g>
</svg>